<mxfile host="app.diagrams.net" modified="2023-10-27T10:01:41.937Z" agent="Mozilla/5.0 (Windows NT 10.0; Win64; x64) AppleWebKit/537.36 (KHTML, like Gecko) Chrome/118.0.0.0 Safari/537.36" version="22.0.8" etag="OoacvNyY9F_S_iZ_tKkC" type="github">
  <diagram name="Страница — 1" id="8h299Dvhr-AKxClLKTdm">
    <mxGraphModel>
      <root>
        <mxCell id="0" />
        <mxCell id="1" parent="0" />
      </root>
    </mxGraphModel>
  </diagram>
</mxfile>
